<svg width="40" height="40" viewBox="0 0 40 40" fill="none" xmlns="http://www.w3.org/2000/svg">
<path d="M13.0654 30.0779C13.7058 29.6541 14.3367 29.7697 14.9008 30.2063C15.352 30.5552 15.7939 30.5059 16.2744 30.3657C19.0405 29.5567 20.2052 26.8226 18.8901 24.1954C17.9583 22.3334 16.3653 21.259 14.5028 20.6469C13.1876 20.2146 11.8015 19.9888 10.4341 19.748C8.97897 19.4923 7.57817 19.1017 6.32466 18.2884C3.79779 16.65 2.62157 14.3107 2.94331 11.2406C3.1376 9.38712 3.64736 7.63105 4.69718 5.83325C4.81835 6.42824 4.9249 6.84559 4.98758 7.27042C5.41482 10.1747 6.67564 12.6756 8.5204 14.8843C8.90063 15.3391 9.34876 15.765 9.83972 16.0861C11.1862 16.9657 12.5703 17.7843 13.9418 18.6244C15.163 19.3724 16.4228 20.0616 17.6 20.8759C18.6509 21.6036 19.4395 22.6074 19.8939 23.8177C20.5092 23.0322 21.0231 22.128 21.7596 21.4977C22.8178 20.5923 24.0128 19.8433 25.1963 19.1081C26.2054 18.4821 27.297 17.9973 28.3259 17.4034C31.9141 15.3338 33.9709 12.1266 34.8724 8.07729C35.004 7.48873 35.1095 6.89374 35.2348 6.3041C35.2474 6.24418 35.3195 6.19602 35.425 6.06975C36.62 8.34054 37.2875 10.6969 37.0451 13.2503C36.8634 15.1626 35.9086 16.6607 34.4002 17.7865C32.9952 18.8363 31.4095 19.4259 29.7037 19.7255C28.54 19.9289 27.3722 20.1343 26.2263 20.4233C24.5006 20.8599 22.9452 21.6657 21.8567 23.1478C21.3658 23.8155 20.9197 24.5946 20.7181 25.394C20.1311 27.7236 21.7794 30.1121 24.1538 30.477C24.4515 30.5231 24.8296 30.3743 25.0971 30.1988C25.7144 29.7943 26.314 29.7237 26.9596 30.0704C25.6434 31.6221 24.2133 33.086 23.0497 34.7447C21.9048 36.3755 21.0294 38.2044 20.0047 40C18.9642 38.1819 18.069 36.3285 16.9085 34.6698C15.7688 33.0368 14.3586 31.6007 13.0654 30.0779ZM21.6614 33.6778C21.0691 33.2765 20.527 32.9094 19.9859 32.5434C19.4228 32.9415 18.8901 33.3171 18.3427 33.7045C18.8995 34.6559 19.427 35.5558 20.013 36.5575C20.5865 35.5569 21.1046 34.6505 21.6614 33.6778ZM22.7896 31.8907C21.5747 31.3663 20.6241 30.5605 19.9754 29.2314C19.3936 30.6236 18.4169 31.3181 17.108 31.8853C18.3615 32.3241 19.1982 31.789 20.0109 31.1887C20.8466 31.9003 21.7136 32.2973 22.7896 31.8907Z" fill="#53BF9D"/>
<path d="M13.4498 27.5289C14.0933 27.3812 14.6793 27.2977 15.2329 27.1094C16.4447 26.6995 16.9659 25.7278 16.6693 24.5475C16.3809 23.4025 15.2622 22.6159 14.1351 22.8364C13.6316 22.9348 13.1532 23.1745 12.6674 23.3618C11.2729 23.9001 9.89611 24.494 8.48277 24.9766C5.83995 25.8787 3.09789 24.6096 1.72738 22.6448C-0.0599174 20.0819 -0.442239 17.2536 0.496851 14.0635C0.750688 14.3696 0.933491 14.5526 1.07347 14.7655C2.06897 16.2723 3.13654 17.7062 4.51645 18.8834C6.27555 20.3847 8.27699 21.1413 10.5615 21.0354C12.1169 20.9637 13.6076 21.1659 15.0188 21.8636C16.0435 22.3698 16.9095 23.0568 17.4673 24.0959C18.1808 25.425 18.0022 27.18 17.0484 28.2897C16.311 29.1469 15.1703 29.4048 14.2092 28.9318C13.6305 28.6471 13.4832 28.386 13.4498 27.5289Z" fill="#53BF9D"/>
<path d="M39.4278 14.0903C40.744 17.4922 39.714 21.7727 37.1119 23.8626C35.6568 25.0312 33.9886 25.501 32.1188 25.12C30.3597 24.7615 28.7604 23.9878 27.1465 23.2419C26.4425 22.9166 25.7394 22.6512 24.9372 22.9027C23.9281 23.2195 23.2596 24.0574 23.2617 25.0847C23.2638 26.112 23.832 26.8589 24.885 27.1543C25.4156 27.303 25.964 27.3833 26.4957 27.4925C26.5062 28.4791 26.1938 28.9393 25.3509 29.0966C24.3052 29.2913 23.4351 28.9735 22.7822 28.0799C21.5976 26.4576 22.0499 23.9097 23.8143 22.5934C25.3864 21.4195 27.1799 20.9637 29.1166 21.0118C29.8426 21.03 30.5832 21.0428 31.2946 20.9208C33.5896 20.5292 35.4166 19.2782 36.902 17.4911C37.5319 16.7345 38.0876 15.9127 38.6757 15.1197C38.9055 14.8126 39.128 14.5023 39.4278 14.0903Z" fill="#53BF9D"/>
<path d="M26.8123 0.0181885C29.4676 1.10008 31.5725 2.76733 32.4176 5.63846C33.365 8.85631 32.9493 11.8676 30.5592 14.3289C29.6661 15.2481 28.5881 16.0133 27.5017 16.6939C25.9264 17.6794 24.1203 18.1086 22.3007 18.5976C24.9414 16.3065 26.7621 13.5006 27.6741 10.1041C28.6017 6.64972 28.4387 3.28954 26.8123 0.0181885Z" fill="#53BF9D"/>
<path d="M17.8434 18.7538C15.1065 17.8806 12.5619 17.0652 10.4351 15.3081C7.20314 12.6381 6.25047 8.25276 8.05762 4.43993C8.95597 2.54581 11.0984 0.681666 13.1709 0C10.1614 7.34851 12.3091 13.3658 17.8434 18.7538Z" fill="#53BF9D"/>
</svg>
