<svg width="40" height="40" viewBox="0 0 40 40" fill="none" xmlns="http://www.w3.org/2000/svg">
<path d="M14.1071 30.9014C14.6305 31.0375 15.1527 31.1736 15.7608 31.3318C16.907 30.1548 17.7587 28.8197 18.3778 27.3903C18.9896 25.9756 19.4572 24.5138 20.0763 22.8289C20.819 26.0332 22.0087 28.8626 24.2052 31.3339C24.8086 31.1737 25.3332 31.0354 25.9474 30.8731C23.9314 33.9612 21.9712 36.9612 19.9891 39.998C20.0448 39.998 20.0036 40.0032 19.9649 39.9969C19.9297 39.9906 19.8873 39.9791 19.8655 39.9561C19.8134 39.9037 19.7613 39.8493 19.7274 39.7875C18.0688 36.7445 16.1667 33.8177 14.1071 30.9014ZM22.1323 32.1485C21.7858 31.3977 21.3266 30.5139 20.968 29.5998C20.6106 28.6909 20.355 27.7537 20.046 26.8039C19.2973 28.7265 18.5861 30.5537 17.8604 32.4187C18.551 32.9852 19.29 33.5926 20.0109 34.1842C20.7197 33.5036 21.363 32.8868 22.1323 32.1485Z" fill="#AEE2FF"/>
<path d="M12.2486 10.0736C11.6368 10.5584 11.2297 10.8799 10.7826 11.2338C12.1856 14.192 14.4718 16.5377 17.1953 18.6529C13.7424 17.6613 10.2484 17.1712 6.58469 17.5597C6.4393 18.0623 6.29998 18.544 6.15217 19.055C4.06348 16.0047 2.02447 13.0287 0 10.0736C3.97504 10.0736 7.97674 10.0736 12.2486 10.0736ZM6.53138 15.434C8.88781 15.8643 11.1255 16.2727 13.1803 16.6487C11.7507 15.2633 10.212 13.7732 8.65641 12.2674C7.74655 12.4946 6.78943 12.7334 5.81173 12.9774C6.05767 13.8172 6.30119 14.6476 6.53138 15.434Z" fill="#AEE2FF"/>
<path d="M40 10.0725C37.9586 13.0527 35.9196 16.0297 33.8357 19.0728C33.6988 18.5597 33.5728 18.0926 33.4323 17.5638C29.8062 17.169 26.3072 17.6392 22.835 18.6487C25.5076 16.5407 27.7902 14.2129 29.2585 11.1699C28.8175 10.884 28.3475 10.5793 27.8774 10.2746C27.9198 10.2076 27.961 10.1406 28.0034 10.0736C32.0002 10.0725 35.9983 10.0725 40 10.0725ZM31.3545 12.2652C29.7468 13.8161 28.2154 15.2925 26.81 16.6486C28.9084 16.2664 31.1679 15.8549 33.4614 15.4371C33.6903 14.6643 33.9375 13.8307 34.1895 12.9794C33.2348 12.7386 32.2789 12.4977 31.3545 12.2652Z" fill="#AEE2FF"/>
<path d="M19.9358 0C21.9409 3.07862 23.8902 6.07137 25.8965 9.15313C25.361 9.03166 24.8207 8.9081 24.204 8.76778C22.0027 11.215 20.8154 14.0601 20.0024 17.0999C19.1907 14.0789 18.0107 11.237 15.7851 8.75417C15.2181 8.90181 14.6923 9.03899 13.9036 9.24528C15.0606 7.60649 16.1388 6.17085 17.1081 4.68285C18.0943 3.16763 18.975 1.60109 19.9358 0ZM17.8895 7.751C18.5995 9.57094 19.3058 11.3846 19.9964 13.1553C20.6942 11.3752 21.4054 9.55942 22.142 7.68189C21.4708 7.12794 20.7306 6.51641 19.9637 5.88393C19.2113 6.56039 18.5219 7.18135 17.8895 7.751Z" fill="#AEE2FF"/>
<path d="M22.8338 21.4655C26.2806 22.3839 29.7589 22.9912 33.4214 22.5242C33.5619 22.0184 33.6903 21.5535 33.8369 21.0226C35.9268 24.0719 37.9743 27.0584 39.9988 30.0113C36.0565 30.0113 32.0402 30.0113 27.7829 30.0113C28.3535 29.5506 28.7497 29.2301 29.2234 28.8469C27.8265 25.9379 25.5743 23.5839 22.8338 21.4655ZM33.4553 24.6342C31.1655 24.23 28.9351 23.8352 26.8561 23.4687C28.2857 24.8562 29.8183 26.3452 31.3436 27.8259C32.2753 27.5924 33.2287 27.3536 34.1883 27.1138C33.9229 26.2175 33.677 25.384 33.4553 24.6342Z" fill="#AEE2FF"/>
<path d="M6.17156 21.0131C6.29877 21.5105 6.41144 21.9472 6.55319 22.5032C10.1793 23.032 13.6819 22.3702 17.1917 21.4519C14.4887 23.5472 12.2062 25.8845 10.7281 28.9484C11.151 29.2406 11.6053 29.5526 12.2631 30.006C7.9719 30.006 3.97262 30.006 0.00848389 30.006C2.01478 27.0782 4.05622 24.0991 6.17156 21.0131ZM6.53502 24.6352C6.31209 25.4185 6.06858 26.275 5.82627 27.1285C6.87303 27.384 7.83015 27.6175 8.65884 27.8196C10.2302 26.2949 11.7386 24.8331 13.1415 23.4708C11.0516 23.8394 8.81997 24.2321 6.53502 24.6352Z" fill="#AEE2FF"/>
<path d="M23.5219 25.3442C22.8483 25.0855 22.1662 24.8771 21.5556 24.564C21.2879 24.4269 21.0867 24.096 20.9935 23.8195C20.67 22.8593 20.4083 21.8844 20.0582 20.698C19.8849 21.055 19.7819 21.2152 19.7298 21.3859C19.5784 21.8907 19.3664 22.3954 19.324 22.9095C19.1968 24.4551 18.0179 24.9996 16.4393 25.2897C16.3654 24.785 16.3254 24.3043 16.22 23.8342C16.1086 23.3357 16.2854 22.9598 16.7058 22.6258C17.2401 22.2027 17.755 21.7598 18.2748 21.3231C18.5861 21.0603 18.8914 20.7912 19.1228 20.3775C18.803 20.4456 18.4807 20.5095 18.1621 20.5849C17.8132 20.6676 17.4691 20.7702 17.119 20.8487C14.6983 21.3943 15.3441 21.6886 12.9053 20.0163C13.568 19.6005 14.1786 19.1775 14.8413 18.8277C15.0363 18.7251 15.3901 18.7869 15.6494 18.8445C16.5071 19.0351 17.354 19.2592 18.2069 19.4676C18.5825 19.5597 18.9593 19.6466 19.599 19.7985C18.6104 18.9859 17.8544 18.3105 17.0305 17.7031C16.3157 17.1753 16.0056 16.5868 16.2612 15.7837C16.3557 15.4863 16.363 15.168 16.409 14.8601C18.1924 15.0077 18.8345 15.4622 19.2476 16.8664C19.473 17.634 19.6826 18.4057 20.0872 19.1984C20.1514 19.0382 20.229 18.8812 20.2762 18.7167C20.4228 18.211 20.6336 17.7073 20.6845 17.1931C20.8335 15.6947 21.9021 15.0381 23.471 14.7941C23.5195 14.8433 23.6019 14.8884 23.6104 14.9418C23.9435 16.945 23.9423 16.945 22.2195 18.3471C21.6949 18.7733 21.174 19.2026 20.7281 19.7566C21.7167 19.5 22.7223 19.2833 23.6903 18.9764C24.662 18.6675 25.481 18.7597 26.2212 19.3974C26.4696 19.611 26.7652 19.7827 27.1481 20.0487C26.5108 20.4414 25.9983 20.8404 25.4022 21.0917C25.0509 21.2393 24.5445 21.2372 24.1483 21.1566C23.0591 20.9346 21.9918 20.6351 20.6833 20.3084C20.9147 20.5953 20.9922 20.7304 21.1098 20.8288C21.5156 21.1671 21.9542 21.4781 22.348 21.8268C24.0659 23.3462 24.0901 22.7378 23.5219 25.3442Z" fill="#AEE2FF"/>
</svg>
