<svg width="40" height="40" viewBox="0 0 40 40" fill="none" xmlns="http://www.w3.org/2000/svg">
<path d="M31.6875 30.8125C31.7461 30.8693 31.7927 30.9373 31.8245 31.0125C31.8563 31.0876 31.8727 31.1684 31.8727 31.25C31.8727 31.3316 31.8563 31.4124 31.8245 31.4875C31.7927 31.5627 31.7461 31.6307 31.6875 31.6875C31.6307 31.7461 31.5627 31.7927 31.4875 31.8245C31.4124 31.8563 31.3316 31.8727 31.25 31.8727C31.1684 31.8727 31.0876 31.8563 31.0125 31.8245C30.9373 31.7927 30.8693 31.7461 30.8125 31.6875L20 20.8906L9.1875 31.6875C9.1307 31.7461 9.0627 31.7927 8.98754 31.8245C8.91239 31.8563 8.83161 31.8727 8.75 31.8727C8.66839 31.8727 8.58762 31.8563 8.51246 31.8245C8.43731 31.7927 8.36931 31.7461 8.3125 31.6875C8.25391 31.6307 8.20733 31.5627 8.17552 31.4875C8.1437 31.4124 8.12731 31.3316 8.12731 31.25C8.12731 31.1684 8.1437 31.0876 8.17552 31.0125C8.20733 30.9373 8.25391 30.8693 8.3125 30.8125L19.1094 20L8.3125 9.1875C8.22224 9.06714 8.17841 8.91826 8.18908 8.76819C8.19974 8.61813 8.26418 8.47694 8.37056 8.37056C8.47694 8.26418 8.61813 8.19974 8.7682 8.18907C8.91827 8.17841 9.06715 8.22223 9.1875 8.3125L20 19.1094L30.8125 8.3125C30.8662 8.24086 30.9347 8.18161 31.0133 8.13875C31.092 8.09589 31.1789 8.07042 31.2682 8.06407C31.3575 8.05772 31.4472 8.07064 31.5311 8.10196C31.6149 8.13327 31.6911 8.18224 31.7544 8.24556C31.8178 8.30888 31.8667 8.38506 31.898 8.46895C31.9294 8.55285 31.9423 8.64249 31.9359 8.73181C31.9296 8.82113 31.9041 8.90804 31.8613 8.98666C31.8184 9.06528 31.7591 9.13377 31.6875 9.1875L20.8906 20L31.6875 30.8125Z" fill="black"/>
</svg>
