<svg width="40" height="40" viewBox="0 0 40 40" fill="none" xmlns="http://www.w3.org/2000/svg">
<path d="M4.36335 22.3874C4.11685 22.6589 3.85754 22.9394 3.60251 23.2245C3.14472 23.7369 2.63786 23.9767 1.9944 23.5898C1.36054 23.2098 0.720288 22.841 0 22.4202C0.664799 21.5775 1.34027 21.0198 2.13525 20.7234C2.46819 20.599 2.95051 20.8003 3.32506 20.9587C3.63132 21.0877 3.87888 21.3727 4.35374 21.7471C4.16273 19.9248 4.29505 18.3547 4.58637 16.7767C4.88729 15.1455 5.64492 13.7802 6.65653 12.2282C6.13152 12.2881 5.84127 12.3062 5.55636 12.3571C3.80526 12.6727 2.78298 12.1105 2.07123 10.3821C1.81619 9.76445 1.62945 9.11401 1.42777 8.47263C1.36375 8.26902 1.35307 8.04617 1.31039 7.77921C1.53768 7.72265 1.70415 7.64007 1.86528 7.64912C2.60904 7.69098 3.35067 7.75659 4.09337 7.81654C5.47312 7.9274 6.36201 8.77466 6.63092 10.2271C6.71202 10.6671 6.79845 11.1049 6.88489 11.5563C7.30746 11.7689 7.53475 11.4194 7.79085 11.1943C9.28051 9.88662 10.9985 9.09365 12.9012 8.85158C15.1954 8.55973 17.1642 9.41265 18.7883 11.1174C19.5065 11.8707 19.4638 12.485 18.7936 13.2824C18.402 13.7474 18.1075 13.7881 17.7607 13.2621C16.6082 11.5167 14.8828 11.252 13.121 11.3481C9.24636 11.5585 6.61278 14.6286 6.57009 18.7517C6.52954 22.6487 8.05122 25.6531 11.1362 27.7232C12.358 28.5433 13.6716 29.2311 14.9969 29.8476C16.9252 30.7446 18.6645 31.8373 19.7028 33.878C19.7519 33.9753 19.8298 34.0567 19.944 34.2162C20.1467 33.9821 20.3292 33.8203 20.4519 33.619C21.3888 32.0896 22.6672 31.0093 24.2252 30.2503C25.6081 29.5761 26.9889 28.8849 28.3249 28.1135C31.1463 26.4823 32.9124 23.9609 33.4171 20.6069C33.8888 17.4712 33.1503 14.6161 30.6523 12.6727C28.4946 10.9941 26.0264 10.8527 23.5892 12.0551C22.9489 12.3707 22.4677 13.0483 21.8808 13.589C20.6611 13.1241 20.358 12.0879 21.3024 11.1219C23.316 9.06424 25.6807 8.28598 28.4316 9.1208C29.8466 9.55065 31.1645 10.1762 32.2774 11.2293C32.4855 11.4262 32.7427 11.5664 33.0842 11.8085C33.1909 11.244 33.2709 10.752 33.3776 10.2678C33.7073 8.77013 34.3786 8.06088 35.8159 7.85726C36.755 7.72491 37.7122 7.73622 38.8155 7.67514C38.4186 9.04162 38.1635 10.3221 37.4198 11.3956C36.7294 12.3922 35.7327 12.5574 34.6496 12.3854C34.3231 12.3334 33.9987 12.2655 33.6006 12.3006C35.403 15.1297 36.1126 18.176 35.6516 21.6793C35.9781 21.487 36.1382 21.427 36.2577 21.3173C37.3003 20.3671 37.6599 20.5119 38.7184 21.1883C39.1634 21.4723 39.5358 21.8829 40 22.2878C39.6404 22.5955 39.3907 22.8681 39.0919 23.0559C37.3451 24.1487 37.0986 24.0095 35.9952 22.7211C35.8874 22.5944 35.7348 22.5107 35.5876 22.3942C35.2386 23.4066 34.9569 24.3602 34.5866 25.2731C33.5932 27.7243 31.8133 29.4324 29.7196 30.7887C28.3292 31.6892 26.9057 32.5466 25.4395 33.2977C23.1122 34.49 21.5435 36.3768 20.5458 38.8564C20.4135 39.1844 20.2513 39.5 20.0208 40C19.77 39.4989 19.5769 39.1957 19.4584 38.862C18.5045 36.1868 16.7374 34.3769 14.3343 33.1122C12.5618 32.179 10.8374 31.1089 9.19408 29.9381C6.73763 28.187 5.20421 25.7108 4.5917 22.6204C4.5821 22.5639 4.49993 22.5231 4.36335 22.3874Z" fill="#5F8D4E"/>
<path d="M17.4598 26.8579C16.3148 26.1169 15.189 25.3398 14.0184 24.6464C12.8382 23.9484 11.6004 23.3795 10.1897 23.5774C9.74575 23.6396 9.30611 23.7369 8.75443 23.8376C9.09803 22.6917 9.91329 22.3591 10.7221 22.0809C10.8929 21.5209 10.4436 21.3094 10.2676 20.9734C9.89195 20.2596 9.34559 19.6465 9.29971 18.7563C9.20154 16.8423 10.1267 15.5245 11.5523 14.5924C12.6429 13.8797 13.9 13.7293 15.1484 14.115C16.0512 14.3933 16.7864 14.9283 17.0831 16.0595C16.732 16.081 16.4588 16.1263 16.1878 16.1104C14.5797 16.0188 13.7335 17.1613 13.4102 18.5006C12.9876 20.2517 13.4496 21.7732 14.521 23.0933C15.2594 24.0027 16.0982 24.8183 16.8729 25.695C17.1514 26.0106 17.3723 26.385 17.6198 26.7312C17.5665 26.7742 17.5131 26.816 17.4598 26.8579Z" fill="#5F8D4E"/>
<path d="M23.0631 16.09C23.0268 15.1613 23.6383 14.7677 24.2049 14.4317C26.6933 12.9589 30.2969 14.8706 30.7248 17.8603C30.8667 18.8479 30.5957 19.7177 30.0654 20.5186C29.7644 20.9722 29.4699 21.4304 29.1146 21.9756C30.0024 22.3851 30.9329 22.6294 31.2285 23.7832C30.7398 23.7052 30.3321 23.6294 29.9224 23.5751C28.6322 23.4054 27.4574 23.8228 26.3625 24.471C25.2496 25.1305 24.1825 25.8782 23.093 26.5841C22.8988 26.7096 22.696 26.8193 22.4975 26.9359C22.4442 26.8714 22.3908 26.808 22.3375 26.7436C22.9852 25.9777 23.6116 25.1904 24.286 24.4518C25.1493 23.505 26.0712 22.6272 26.5119 21.3286C26.9313 20.0922 26.9121 18.9146 26.37 17.7325C25.8279 16.5493 24.955 15.9984 23.7161 16.0866C23.5102 16.1025 23.301 16.09 23.0631 16.09Z" fill="#5F8D4E"/>
<path d="M20.0155 10.8413C19.0199 9.72484 17.9805 8.8821 17.2613 7.70114C16.8323 6.99641 16.7053 6.2453 16.9038 5.44668C17.0201 4.97837 17.1322 4.48291 17.3669 4.07907C18.1737 2.68658 19.0337 1.32915 19.849 0C20.0614 0.065609 20.1574 0.0633466 20.1883 0.109725C21.1455 1.54068 22.1977 2.89811 22.871 4.53494C23.4889 6.03603 23.2029 7.32445 22.2446 8.48279C21.5969 9.26558 20.8531 9.96239 20.0155 10.8413Z" fill="#5F8D4E"/>
</svg>
