<svg width="40" height="40" viewBox="0 0 40 40" fill="none" xmlns="http://www.w3.org/2000/svg">
<path d="M11.0372 24.3788C11.4026 24.7723 11.5864 24.9697 11.7712 25.167C13.4819 26.9942 16.1745 26.84 17.6289 24.7524C18.9626 22.837 19.1968 20.7295 18.2285 18.5873C16.4863 14.7302 11.7807 13.2073 7.89621 15.1815C5.86734 16.2132 4.51161 17.8295 3.6442 19.9024C2.73793 22.0676 2.50795 24.3525 2.42079 26.6626C2.39138 27.4477 2.41659 28.2348 2.41659 29.1395C-1.94674 22.2041 -0.459742 10.4575 7.35329 4.56002C6.06267 7.01597 4.45596 9.35333 4.32259 12.481C4.71009 12.12 4.95582 11.8954 5.19736 11.6666C7.30918 9.6577 9.66044 8.09282 12.5987 7.5544C15.3658 7.04746 18.5236 7.89655 20.7951 9.86552C20.3278 9.98412 19.9129 10.0754 19.5065 10.1951C17.5932 10.7587 16.6376 12.332 16.9999 14.3062C17.4598 16.8188 19.8541 18.7983 22.6328 18.9578C27.2272 19.2202 29.9869 15.5331 30.3492 12.2165C30.6664 9.3082 29.6425 6.87219 27.7039 4.76573C26.2411 3.17985 24.4895 1.97391 22.6055 0.949548C22.0563 0.650425 21.4966 0.370194 20.8959 0.0574266C27.5685 -0.674113 38.4794 5.62846 40 16.3916C38.5466 14.0113 37.1783 11.5574 34.597 9.87391C34.8407 11.0662 35.0875 12.0696 35.245 13.0866C35.6419 15.6601 35.4245 18.1622 34.2998 20.5531C33.1489 22.9986 31.2082 24.5267 28.5724 25.5564C28.6984 25.125 28.7751 24.8437 28.8633 24.5666C29.6803 22.0015 28.1114 19.7303 25.4125 19.5749C22.2422 19.3934 19.3868 21.7066 18.7725 24.955C18.0353 28.8467 20.5567 32.7458 24.5252 33.8478C26.3944 34.3674 28.2637 34.2981 30.1108 33.7618C32.3382 33.1153 34.4385 32.1791 36.3602 30.8629C36.586 30.7086 36.8233 30.5722 37.1006 30.4001C36.0609 33.4238 31.1064 37.3607 26.4427 38.977C21.861 40.565 16.0127 40.1819 13.4409 38.6674C15.6735 38.4638 17.8988 38.6538 20.0201 37.9527C20.5136 37.79 20.9946 37.5916 21.7066 37.3261C21.2382 37.1644 20.9736 37.0658 20.7058 36.9818C18.8996 36.4151 17.1374 35.7475 15.5664 34.6644C13.2908 33.0953 11.724 31.0224 11.1338 28.2894C11.0025 27.6796 10.9605 27.0436 10.9416 26.418C10.9227 25.8303 10.992 25.2415 11.0372 24.3788Z" fill="#6F1AB6"/>
</svg>
