<svg width="40" height="40" viewBox="0 0 40 40" fill="none" xmlns="http://www.w3.org/2000/svg">
<path d="M40 19.945C38.9107 21.8806 37.4302 23.5735 35.733 25.2772C32.363 16.2512 26.4976 8.8398 19.883 1.75033C16.1559 5.78985 12.3406 9.64018 10.7751 14.8357C10.8389 14.8872 10.9016 14.9387 10.9654 14.9902C13.9092 12.6921 16.8541 10.393 19.8862 8.02655C23.3306 11.0547 26.1458 14.4702 28.3394 18.4622C26.2117 20.7107 23.6601 22.4521 21.0531 24.3104C20.4877 23.6676 19.9829 23.093 19.6141 22.674C21.0063 21.2902 22.3029 19.9856 23.6207 18.6989C24.4072 17.9312 24.4337 17.9391 23.9481 17.011C22.999 15.2002 21.5824 13.752 19.8267 12.4177C19.1667 12.7882 18.4802 13.1181 17.8584 13.5321C15.0272 15.4122 12.4299 17.5459 10.0376 19.8955C9.86966 20.0599 9.7145 20.2353 9.51683 20.4443C9.36591 20.2818 9.2607 20.2006 9.198 20.0976C7.87911 17.9381 6.87268 15.6658 6.25734 13.2419C6.1128 12.6713 6.22652 12.2444 6.59423 11.7848C8.9355 8.86159 11.7231 6.33763 14.6627 3.95334C16.1017 2.78547 17.6034 1.68396 19.0817 0.557688C19.3506 0.352641 19.6449 0.176321 19.9085 0C25.9747 3.31245 37.5843 14.8357 40 19.945Z" fill="#E6B325"/>
<path d="M19.85 40C17.4121 38.0585 15.0028 36.222 12.6945 34.2805C9.08853 31.2484 5.74509 27.9785 2.87669 24.3154C1.96059 23.1455 1.16671 21.8935 0.294184 20.6939C-0.0650298 20.2006 -0.12667 19.7608 0.285681 19.2645C1.47385 17.8322 2.6397 16.3839 3.82042 14.9466C3.90119 14.8486 4.03085 14.7852 4.20833 14.6544C7.53265 23.5844 13.3853 30.976 19.9 37.9783C22.8864 36.1626 28.5774 28.0746 29.0716 24.8315C25.9492 27.1256 23.0978 29.499 20.0265 31.8308C16.598 28.8314 13.7944 25.4139 11.569 21.3992C13.6797 19.1684 16.2441 17.431 18.8457 15.5588C19.392 16.168 19.9032 16.7386 20.3793 17.2695C19.7183 17.9362 19.1401 18.5503 18.5258 19.1318C17.7065 19.9064 16.8722 20.6691 16.0188 21.4111C15.6521 21.73 15.5799 22.047 15.7754 22.465C16.6607 24.352 18.0699 25.8518 19.7321 27.1712C20.0307 27.4079 20.3262 27.3406 20.6099 27.1732C21.2975 26.769 22.0032 26.3857 22.6536 25.935C25.3265 24.0796 27.8261 22.0391 30.0876 19.7529C30.1811 19.6578 30.2896 19.5755 30.3831 19.4943C30.467 19.528 30.5499 19.5359 30.5754 19.5755C32.0282 21.8231 33.0559 24.2292 33.7 26.7839C33.8285 27.295 33.6511 27.6595 33.3407 28.0528C31.55 30.3202 29.4829 32.3568 27.2447 34.2329C25.2202 35.9298 23.1063 37.5335 21.0276 39.1729C20.7034 39.4245 20.3549 39.6454 19.85 40Z" fill="#E6B325"/>
</svg>
