<svg width="40" height="40" viewBox="0 0 40 40" fill="none" xmlns="http://www.w3.org/2000/svg">
<path d="M8.73164 35.3889C8.95903 35.482 9.19548 35.558 9.4127 35.6716C12.4345 37.2496 15.6588 38.0239 19.0494 38.2384C25.5195 38.6483 30.8073 33.6837 30.7507 27.2013C30.7055 22.0176 26.6689 17.4776 21.5112 16.7488C19.9499 16.5285 18.4339 16.6194 16.9315 17.0633C16.195 17.2812 15.4461 17.4322 14.722 17.103C13.757 16.6636 13.1993 15.8928 13.1167 14.8166C13.0341 13.7358 13.4278 12.8355 14.3973 12.3655C15.2696 11.9432 16.2097 11.598 17.1589 11.4062C26.6915 9.48076 35.0351 17.5878 33.7793 26.7982C33.2589 30.6173 31.416 33.6746 28.4225 36.0576C28.1068 36.3085 27.7821 36.5491 27.5264 36.9181C27.7154 36.8352 27.9156 36.7728 28.091 36.6683C33.2136 33.5974 35.9266 29.0393 36.1777 23.0927C36.5692 13.8311 29.3377 7.712 23.1109 6.66187C16.6781 5.57654 11.379 7.5383 7.2609 12.6198C6.03907 14.1286 4.61133 14.4703 3.13946 13.503C2.19593 12.8832 1.79884 11.9273 2.16086 10.8578C2.37581 10.2232 2.69372 9.60223 3.07045 9.04708C6.43051 4.09047 11.1165 1.19097 16.9847 0.245288C25.9596 -1.20219 36.2977 3.75783 39.3115 15.0936C42.3876 26.6632 34.7364 36.9226 24.7038 39.4112C20.9975 40.3307 17.3105 40.1593 13.671 38.9945C11.6448 38.3463 10.027 37.1134 8.73164 35.3889Z" fill="#0081C9"/>
<path d="M25.3973 33.9028C23.9899 36.0383 21.1446 37.1701 18.5052 36.6456C15.2244 35.994 12.8237 33.1297 12.7105 29.7364C12.6065 26.5848 14.9132 23.5366 18.0957 22.7567C20.5088 22.1663 22.7251 22.6466 24.6359 24.3006C25.7729 25.2849 26.3657 26.5723 26.5954 28.0278C26.7594 29.0665 26.3872 29.9748 25.6699 30.7127C24.7208 31.689 23.0407 31.5471 22.1979 30.3971C21.8721 29.9521 21.6752 29.4003 21.4738 28.8758C20.7566 27.0117 19.0087 26.3941 17.2777 27.4113C14.9302 28.7918 14.429 31.6606 16.1588 33.8256C17.7223 35.7828 20.4998 36.439 22.9174 35.3469C23.7851 34.9563 24.5737 34.3898 25.3973 33.9028Z" fill="#0081C9"/>
<path d="M2.76046 17.615C4.16105 17.6127 5.41683 18.8774 5.43606 20.3079C5.45529 21.7338 4.09883 23.0745 2.6643 23.0473C1.25126 23.02 0.00453755 21.7485 1.22254e-05 20.3283C-0.0045131 18.849 1.24787 17.6173 2.76046 17.615Z" fill="#0081C9"/>
<path d="M8.17506 29.1835C8.15696 30.2177 7.30054 31.0533 6.2846 31.0294C5.31618 31.0067 4.39075 30.0724 4.39528 29.1222C4.40094 28.1379 5.29356 27.2376 6.27782 27.224C7.35258 27.2092 8.19429 28.0777 8.17506 29.1835Z" fill="#0081C9"/>
</svg>
