<svg width="40" height="40" viewBox="0 0 40 40" fill="none" xmlns="http://www.w3.org/2000/svg">
<path d="M20.3809 40C19.9492 39.7134 19.5228 39.4246 19.0898 39.1422C16.213 37.2715 13.3 35.4479 10.0433 34.0307C8.52218 33.3686 7.04631 32.6285 5.58982 31.8712C4.4254 31.2669 3.25452 30.6487 2.20512 29.9203C0.428125 28.6871 -0.349877 27.1031 0.147682 25.1618C0.56253 23.5414 1.32761 22.0418 2.37959 20.6407C2.80995 20.0674 3.27261 19.5069 3.75466 18.9625C5.98916 16.4447 8.6708 14.1943 10.3935 11.1749C10.537 11.5129 10.6391 11.6669 10.6649 11.8284C10.9686 13.682 12.1692 15.1035 13.9992 16.0854C15.5397 16.9121 17.2482 17.5261 18.8818 18.2341C19.0937 18.3261 19.3095 18.4127 19.5073 18.6609C19.1027 18.7015 18.6982 18.74 18.2937 18.7839C14.0212 19.247 10.0498 21.6118 9.31828 25.7821C9.02879 27.4357 9.6194 28.8721 10.7321 30.2038C10.9505 30.4647 11.2 30.7086 11.4907 31.0188C11.3124 31.038 11.178 31.0894 11.1198 31.0541C9.74088 30.2112 8.22365 29.4796 7.02951 28.4828C4.43057 26.3116 4.10877 23.8515 5.84958 21.1541C6.24375 20.5423 6.73743 19.9743 7.23887 19.3176C3.44191 20.6909 1.55248 23.9863 2.76084 26.9619C3.21446 28.0796 4.05837 28.9716 5.16334 29.6818C5.90774 30.1599 6.70125 30.5995 7.52319 30.9813C11.7544 32.9504 16.2389 34.558 20.0966 37.0843C20.4171 36.9453 20.6936 36.8533 20.9327 36.7164C24.2631 34.8115 27.728 33.0927 31.3194 31.5429C32.4244 31.0658 33.4971 30.531 34.5348 29.961C35.2456 29.5695 35.9422 29.1267 36.5225 28.6112C38.7557 26.6282 38.8074 24.0002 36.7047 21.9274C35.8983 21.1327 34.9574 20.4674 33.6754 19.8813C33.7698 20.2246 33.8137 20.4375 33.8861 20.6428C34.1988 21.5284 34.5852 22.4001 34.823 23.2986C35.4421 25.6281 34.6343 27.6678 32.7772 29.4358C29.7169 32.3515 22.4202 34.9773 16.098 32.637C14.7462 32.1365 13.4771 31.5375 12.6293 30.4925C10.9803 28.4636 12.4316 25.7971 15.3084 25.5896C16.0179 25.5383 16.7403 25.6206 17.7587 25.6495C17.2663 26.0517 16.982 26.287 16.6938 26.5201C15.5552 27.44 15.1714 28.5748 15.4273 29.8412C15.6302 30.8466 16.3242 31.5942 17.4576 32.0434C18.9813 32.6477 20.5941 32.8018 22.2432 32.6317C23.9207 32.4584 25.5193 32.0359 26.9836 31.3204C30.8258 29.4422 31.7343 25.2441 28.9673 22.336C27.6595 20.9615 26.0647 19.9144 24.13 19.2224C22.6697 18.7005 21.1641 18.2577 19.7373 17.6801C18.3532 17.1207 16.9303 16.556 15.7245 15.7805C12.6939 13.8318 12.2196 11.0444 14.3145 8.40259C14.7384 7.8678 15.1998 7.35013 15.6845 6.85063C17.623 4.85374 19.2514 2.73811 19.5124 0C19.7515 0.111236 19.9286 0.144393 20.0009 0.234237C21.1046 1.58939 22.3259 2.89427 23.2564 4.3275C24.5022 6.24739 24.1391 7.4389 22.1178 8.83577C20.8074 9.7417 19.6882 10.7524 19.0149 12.0605C18.0378 13.9558 18.7293 15.7238 21.0025 16.8929C20.8423 16.6672 20.7764 16.5538 20.6872 16.4533C19.4323 15.0457 19.5447 13.5986 20.5399 12.1482C21.5569 10.6658 23.0199 9.56415 24.9378 8.77694C24.1145 11.2862 23.5691 13.744 25.1032 16.1784C26.035 17.6566 27.5781 19.2909 29.0811 20.1733C29.0061 19.354 28.4969 18.7967 28.0304 18.2117C27.56 17.6213 27.0585 17.0309 26.7303 16.3848C26.1552 15.2522 26.2159 14.0778 26.844 12.9622C27.3067 12.1408 27.7642 11.3001 28.6662 10.6433C28.7554 10.8027 28.8252 10.8872 28.851 10.9803C29.6988 13.9537 31.7214 16.2725 34.6408 18.0919C36.3609 19.1636 37.6262 20.553 38.6368 22.0964C39.1033 22.8087 39.451 23.5874 39.7288 24.3671C40.2561 25.8474 40.0274 27.2999 38.9289 28.5427C38.1005 29.4807 37.17 30.4166 36.0663 31.115C34.3306 32.2135 32.4748 33.2082 30.5544 34.0724C27.0572 35.6479 23.7733 37.4448 20.872 39.7091C20.7544 39.8053 20.6006 39.8727 20.3809 40Z" fill="#DC0000"/>
<path d="M14.3081 24.1083C15.1494 22.0247 17.424 20.7049 20.0824 20.8118C21.1783 20.8557 22.3104 21.0354 23.3352 21.353C25.5853 22.0483 26.7703 23.5275 27.1632 25.4399C27.3713 26.4506 26.9306 27.332 26.0686 28.055C25.0929 28.8743 23.9207 29.4433 22.459 29.9225C22.5469 29.6893 22.5728 29.5717 22.6335 29.4668C23.953 27.2197 22.8041 24.812 19.9699 23.8944C18.4708 23.4088 16.9549 23.4077 15.4286 23.7906C15.0758 23.8794 14.7307 23.9885 14.3081 24.1083Z" fill="#DC0000"/>
</svg>
