<svg width="35" height="35" viewBox="0 0 35 35" fill="none" xmlns="http://www.w3.org/2000/svg">
<g clip-path="url(#clip0_24623_4)">
<path d="M17.5 -5.00801e-05C19.1064 -5.00801e-05 20.6559 0.205028 22.1484 0.615184C23.641 1.02534 25.0366 1.61209 26.3354 2.37544C27.6343 3.13878 28.8135 4.05024 29.873 5.10981C30.9326 6.16938 31.8441 7.35428 32.6074 8.6645C33.3708 9.97472 33.9575 11.3704 34.3677 12.8515C34.7778 14.3326 34.9886 15.8821 35 17.4999C35 19.1064 34.7949 20.6559 34.3848 22.1484C33.9746 23.6409 33.3879 25.0366 32.6245 26.3354C31.8612 27.6342 30.9497 28.8134 29.8901 29.873C28.8306 30.9326 27.6457 31.844 26.3354 32.6074C25.0252 33.3707 23.6296 33.9575 22.1484 34.3676C20.6673 34.7778 19.1178 34.9886 17.5 34.9999C15.5404 34.9999 13.6605 34.6866 11.8604 34.06C10.0602 33.4334 8.4139 32.5561 6.92139 31.4282C5.42887 30.3002 4.14144 28.9444 3.05908 27.3608C1.97673 25.7771 1.1735 24.0454 0.649414 22.1655L2.75146 21.5844C3.20719 23.2364 3.90788 24.746 4.85352 26.1132C5.79915 27.4804 6.92708 28.6653 8.2373 29.6679C9.54753 30.6705 10.9888 31.4396 12.561 31.975C14.1333 32.5105 15.7796 32.7897 17.5 32.8124C18.9014 32.8124 20.2515 32.6302 21.5503 32.2656C22.8491 31.901 24.0682 31.3883 25.2075 30.7275C26.3468 30.0667 27.3836 29.2635 28.3179 28.3178C29.2521 27.3722 30.0496 26.3411 30.7104 25.2246C31.3713 24.108 31.8896 22.8889 32.2656 21.5673C32.6416 20.2457 32.8239 18.8899 32.8125 17.4999C32.8125 16.0986 32.6302 14.7485 32.2656 13.4497C31.901 12.1508 31.3883 10.9318 30.7275 9.79243C30.0667 8.65311 29.2635 7.61632 28.3179 6.68208C27.3722 5.74783 26.3411 4.95031 25.2246 4.2895C24.1081 3.62869 22.889 3.1103 21.5674 2.73432C20.2458 2.35835 18.89 2.17606 17.5 2.18745C16.0303 2.18745 14.6004 2.39253 13.2104 2.80268C11.8205 3.21284 10.5273 3.79959 9.33105 4.56294C8.13477 5.32628 7.04671 6.24344 6.06689 7.3144C5.08708 8.38537 4.28955 9.59305 3.67432 10.9374H8.75V13.1249H0V4.37495H2.1875V9.05757C2.95085 7.6562 3.87939 6.39725 4.97314 5.28071C6.06689 4.16418 7.27458 3.21854 8.59619 2.4438C9.91781 1.66906 11.3363 1.06522 12.8516 0.632274C14.3669 0.199331 15.9163 -0.0114433 17.5 -5.00801e-05Z" fill="black"/>
</g>
<defs>
<clipPath id="clip0_24623_4">
<rect width="35" height="35" fill="white"/>
</clipPath>
</defs>
</svg>
